<?xml version="1.0" encoding="UTF-8"?>
<!-- Generated by Pixelmator Pro 3.6.14 -->
<svg width="128" height="128" viewBox="0 0 128 128" xmlns="http://www.w3.org/2000/svg">
    <path id="path1" fill="#000000" fill-rule="evenodd" stroke="none" d="M 64 5 C 96.584801 5 123 31.415199 123 64 C 123 96.584801 96.584801 123 64 123 C 31.415199 123 5 96.584801 5 64 C 5 31.415199 31.415199 5 64 5 Z M 37.622307 58.001968 C 32.370365 60.228371 28.690266 65.396515 28.690266 71.416672 C 28.690266 78.471954 33.324383 84.648796 40.039822 86 L 87.960175 86 C 94.675613 84.648796 99.309738 78.471954 99.309738 71.416672 C 99.309738 65.15152 95.323997 59.80912 89.728813 57.744911 C 90.219368 56.066925 90.4823 54.293068 90.4823 52.458336 C 90.4823 41.987938 81.91925 33.5 71.356194 33.5 C 63.373318 33.5 56.532719 38.347771 53.667191 45.235352 C 53.194351 45.189919 52.714958 45.166664 52.230087 45.166664 C 44.70145 45.166664 38.493591 50.771965 37.622307 58.001968 Z"/>
</svg>
